<?xml version="1.0" encoding="UTF-8" standalone="no"?> <svg id="Layer_1" data-name="Layer 1" xmlns="http://www.w3.org/2000/svg" viewBox="0 0 512 512"><defs><style>.cls-1{fill:#263f52;}.cls-2{fill:#2d4a60;}.cls-3{fill:#00aae5;}.cls-4{fill:#009ae0;}.cls-5{fill:#eaeff0;}</style></defs><title>Monitor</title><rect class="cls-1" x="213.333" y="341.333" width="85.333" height="96"/><rect class="cls-2" x="21.333" y="64" width="469.333" height="309.333" rx="32" ry="32"/><path class="cls-1" d="M32.756,71.529A31.932,31.932,0,0,0,21.333,96V341.333a32.035,32.035,0,0,0,32,32H458.667a31.843,31.843,0,0,0,20.577-7.529Z"/><rect class="cls-3" x="42.667" y="85.333" width="426.667" height="245.333" rx="16" ry="16"/><path class="cls-4" d="M54.594,85.922a15.96,15.96,0,0,0-11.927,15.411V314.667a16,16,0,0,0,16,16h368Z"/><path class="cls-2" d="M421.333,416H90.667A26.667,26.667,0,0,0,64,442.667h0A5.333,5.333,0,0,0,69.333,448H442.667A5.333,5.333,0,0,0,448,442.667h0A26.667,26.667,0,0,0,421.333,416Z"/><circle class="cls-5" cx="256" cy="352" r="10.667"/></svg>